<svg width="16" height="17" viewBox="0 0 16 17" fill="none" xmlns="http://www.w3.org/2000/svg">
<path d="M8 0.235565C9.06087 0.235565 10.0783 0.658865 10.8284 1.41235C11.5786 2.16582 12 3.18776 12 4.25334C12 5.31892 11.5786 6.34086 10.8284 7.09434C10.0783 7.84782 9.06087 8.27112 8 8.27112C6.93913 8.27112 5.92172 7.84782 5.17157 7.09434C4.42143 6.34086 4 5.31892 4 4.25334C4 3.18776 4.42143 2.16582 5.17157 1.41235C5.92172 0.658865 6.93913 0.235565 8 0.235565ZM8 2.24445C7.46957 2.24445 6.96086 2.4561 6.58579 2.83284C6.21071 3.20958 6 3.72055 6 4.25334C6 4.78613 6.21071 5.2971 6.58579 5.67384C6.96086 6.05058 7.46957 6.26223 8 6.26223C8.53043 6.26223 9.03914 6.05058 9.41421 5.67384C9.78929 5.2971 10 4.78613 10 4.25334C10 3.72055 9.78929 3.20958 9.41421 2.83284C9.03914 2.4561 8.53043 2.24445 8 2.24445ZM8 9.27557C10.67 9.27557 16 10.6115 16 13.2933V16.3067H0V13.2933C0 10.6115 5.33 9.27557 8 9.27557ZM8 11.184C5.03 11.184 1.9 12.6505 1.9 13.2933V14.3982H14.1V13.2933C14.1 12.6505 10.97 11.184 8 11.184Z" fill="black"/>
</svg>
