<svg width="20" height="21" viewBox="0 0 20 21" fill="none" xmlns="http://www.w3.org/2000/svg">
<path d="M16 16.2978C16.5304 16.2978 17.0391 16.5094 17.4142 16.8862C17.7893 17.2629 18 17.7739 18 18.3067C18 18.8395 17.7893 19.3504 17.4142 19.7272C17.0391 20.1039 16.5304 20.3156 16 20.3156C14.89 20.3156 14 19.4116 14 18.3067C14 17.1917 14.89 16.2978 16 16.2978ZM0 0.226685H3.27L4.21 2.23557H19C19.2652 2.23557 19.5196 2.3414 19.7071 2.52977C19.8946 2.71814 20 2.97362 20 3.24002C20 3.41077 19.95 3.58153 19.88 3.74224L16.3 10.241C15.96 10.8537 15.3 11.2756 14.55 11.2756H7.1L6.2 12.9128L6.17 13.0333C6.17 13.0999 6.19634 13.1638 6.24322 13.2109C6.29011 13.258 6.3537 13.2845 6.42 13.2845H18V15.2933H6C4.89 15.2933 4 14.3893 4 13.2845C4 12.9329 4.09 12.6014 4.24 12.3202L5.6 9.8593L2 2.23557H0V0.226685ZM6 16.2978C6.53043 16.2978 7.03914 16.5094 7.41421 16.8862C7.78929 17.2629 8 17.7739 8 18.3067C8 18.8395 7.78929 19.3504 7.41421 19.7272C7.03914 20.1039 6.53043 20.3156 6 20.3156C4.89 20.3156 4 19.4116 4 18.3067C4 17.1917 4.89 16.2978 6 16.2978ZM15 9.26668L17.78 4.24446H5.14L7.5 9.26668H15Z" fill="black"/>
</svg>
