<svg width="20" height="19" viewBox="0 0 20 19" fill="none" xmlns="http://www.w3.org/2000/svg">
<path d="M10.1 15.8502L10 15.9507L9.89 15.8502C5.14 11.5211 2 8.6584 2 5.75555C2 3.74667 3.5 2.24 5.5 2.24C7.04 2.24 8.54 3.24444 9.07 4.61049H10.93C11.46 3.24444 12.96 2.24 14.5 2.24C16.5 2.24 18 3.74667 18 5.75555C18 8.6584 14.86 11.5211 10.1 15.8502ZM14.5 0.23111C12.76 0.23111 11.09 1.04471 10 2.32035C8.91 1.04471 7.24 0.23111 5.5 0.23111C2.42 0.23111 0 2.65182 0 5.75555C0 9.54231 3.4 12.646 8.55 17.3368L10 18.6627L11.45 17.3368C16.6 12.646 20 9.54231 20 5.75555C20 2.65182 17.58 0.23111 14.5 0.23111Z" fill="black"/>
</svg>
