<svg width="18" height="18" viewBox="0 0 18 18" fill="none" xmlns="http://www.w3.org/2000/svg">
<path d="M12.5 11.28H11.71L11.43 11.0088C12.41 9.86373 13 8.37715 13 6.76C13 3.15404 10.09 0.23111 6.5 0.23111C2.91 0.23111 0 3.15404 0 6.76C0 10.366 2.91 13.2889 6.5 13.2889C8.11 13.2889 9.58999 12.6963 10.73 11.7119L11 11.9932V12.7867L16 17.7988L17.49 16.3022L12.5 11.28ZM6.5 11.28C4.01 11.28 2 9.26107 2 6.76C2 4.25893 4.01 2.24 6.5 2.24C8.99 2.24 11 4.25893 11 6.76C11 9.26107 8.99 11.28 6.5 11.28Z" fill="black"/>
</svg>
