<svg width="12" height="12" viewBox="0 0 12 12" fill="none" xmlns="http://www.w3.org/2000/svg">
<path d="M6 0C5.21207 -1.17411e-08 4.43185 0.155195 3.7039 0.456723C2.97595 0.758251 2.31451 1.20021 1.75736 1.75736C1.20021 2.31451 0.758251 2.97595 0.456723 3.7039C0.155195 4.43185 0 5.21207 0 6C0 6.78793 0.155195 7.56815 0.456723 8.2961C0.758251 9.02405 1.20021 9.68549 1.75736 10.2426C2.31451 10.7998 2.97595 11.2417 3.7039 11.5433C4.43185 11.8448 5.21207 12 6 12C7.5913 12 9.11742 11.3679 10.2426 10.2426C11.3679 9.11742 12 7.5913 12 6C12 4.4087 11.3679 2.88258 10.2426 1.75736C9.11742 0.632141 7.5913 2.37122e-08 6 0V0ZM3.5 5.5H8.5C8.63261 5.5 8.75979 5.55268 8.85355 5.64645C8.94732 5.74021 9 5.86739 9 6C9 6.13261 8.94732 6.25979 8.85355 6.35355C8.75979 6.44732 8.63261 6.5 8.5 6.5H3.5C3.36739 6.5 3.24021 6.44732 3.14645 6.35355C3.05268 6.25979 3 6.13261 3 6C3 5.86739 3.05268 5.74021 3.14645 5.64645C3.24021 5.55268 3.36739 5.5 3.5 5.5V5.5Z" fill="black"/>
</svg>
