<svg width="35" height="35" viewBox="0 0 35 35" fill="none" xmlns="http://www.w3.org/2000/svg">
<path d="M23.3333 17.5H27.2222C27.2222 14.9215 26.1979 12.4486 24.3746 10.6254C22.5514 8.80208 20.0785 7.77778 17.5 7.77778V11.6667C19.0471 11.6667 20.5308 12.2812 21.6248 13.3752C22.7188 14.4692 23.3333 15.9529 23.3333 17.5ZM31.1111 17.5H35C35 7.77778 27.1639 0 17.5 0V3.88889C25.0056 3.88889 31.1111 9.975 31.1111 17.5ZM33.0556 24.3056C30.625 24.3056 28.2917 23.9167 26.1139 23.1972C25.4333 22.9833 24.675 23.1389 24.1306 23.6833L19.8528 27.9611C14.35 25.1611 9.83889 20.65 7.03889 15.1472L11.3167 10.8694C11.8611 10.325 12.0167 9.56667 11.8028 8.88611C11.0833 6.70833 10.6944 4.375 10.6944 1.94444C10.6944 1.42875 10.4896 0.934169 10.1249 0.569515C9.76027 0.20486 9.2657 0 8.75 0H1.94444C1.42875 0 0.934169 0.20486 0.569515 0.569515C0.20486 0.934169 0 1.42875 0 1.94444C0 10.7113 3.48263 19.1191 9.68175 25.3183C15.8809 31.5174 24.2887 35 33.0556 35C33.5713 35 34.0658 34.7951 34.4305 34.4305C34.7951 34.0658 35 33.5713 35 33.0556V26.25C35 25.7343 34.7951 25.2397 34.4305 24.8751C34.0658 24.5104 33.5713 24.3056 33.0556 24.3056Z" fill="black"/>
</svg>
